<?xml version="1.0" standalone="no"?>
<!DOCTYPE svg PUBLIC "-//W3C//DTD SVG 20010904//EN"
 "http://www.w3.org/TR/2001/REC-SVG-20010904/DTD/svg10.dtd">
<svg version="1.0" xmlns="http://www.w3.org/2000/svg"
 width="2048.000000pt" height="2048.000000pt" viewBox="0 0 2048.000000 2048.000000"
 preserveAspectRatio="xMidYMid meet">
<metadata>
Created by potrace 1.14, written by Peter Selinger 2001-2017
</metadata>
<g transform="translate(0.000000,2048.000000) scale(0.100000,-0.100000)"
fill="#000000" stroke="none">
<path d="M0 10240 l0 -10240 10240 0 10240 0 0 10240 0 10240 -10240 0 -10240
0 0 -10240z m8732 4492 c288 -66 507 -184 717 -387 137 -133 221 -242 294
-384 69 -133 110 -249 139 -393 l23 -113 0 -1465 c0 -1367 -1 -1471 -18 -1560
-38 -199 -121 -398 -239 -574 -76 -112 -283 -321 -390 -394 -100 -68 -249
-142 -368 -182 -52 -18 -96 -33 -98 -35 -2 -2 1512 -3084 1679 -3416 l49 -99
-900 2 -900 3 -853 1737 -852 1738 -852 0 -853 0 0 -1740 0 -1740 -810 0 -810
0 0 4515 0 4515 2473 -3 2472 -3 97 -22z m8068 -717 l0 -745 -1925 0 -1925 0
0 -1125 0 -1125 1755 0 1755 0 0 -745 0 -745 -1755 0 -1755 0 0 -1155 0 -1155
1925 0 1925 0 0 -745 0 -745 -2735 0 -2735 0 0 4515 0 4515 2735 0 2735 0 0
-745z"/>
<path d="M5310 11985 l0 -1285 1323 0 c1465 0 1390 -3 1494 65 58 39 92 80
125 151 l23 49 0 1010 c0 956 -1 1013 -18 1063 -27 75 -108 161 -189 198 l-63
29 -1347 3 -1348 2 0 -1285z"/>
</g>
</svg>
